# Rhino

mtllib accessi.mtl
g AR 4 ACCESSI
usemtl Blue
v -189.16253662109375 40.5 -501.23233032226562
v -139.16253662109375 40.5 -453.66802978515625
v -89.162528991699219 40.5 -501.23233032226562
v -118.13676452636719 40.5 -501.23233032226562
v -118.13676452636719 40.5 -591.65631103515625
v -160.18829345703125 40.5 -591.65631103515625
v -160.18829345703125 40.5 -501.23233032226562
v -139.16253662109375 40.5 -453.66802978515625
v -139.16253662109375 50.5 -453.66802978515625
v -189.16253662109375 40.5 -501.23233032226562
v -189.16253662109375 50.5 -501.23233032226562
v -89.162528991699219 40.5 -501.23233032226562
v -89.162528991699219 50.5 -501.23233032226562
v -139.16253662109375 40.5 -453.66802978515625
v -139.16253662109375 50.5 -453.66802978515625
v -118.13676452636719 40.5 -501.23233032226562
v -118.13676452636719 50.5 -501.23233032226562
v -89.162528991699219 40.5 -501.23233032226562
v -89.162528991699219 50.5 -501.23233032226562
v -118.13676452636719 40.5 -591.65631103515625
v -118.13676452636719 50.5 -591.65631103515625
v -118.13676452636719 40.5 -501.23233032226562
v -118.13676452636719 50.5 -501.23233032226562
v -160.18829345703125 40.5 -591.65631103515625
v -160.18829345703125 50.5 -591.65631103515625
v -118.13676452636719 40.5 -591.65631103515625
v -118.13676452636719 50.5 -591.65631103515625
v -160.18829345703125 40.5 -501.23233032226562
v -160.18829345703125 50.5 -501.23233032226562
v -160.18829345703125 40.5 -591.65631103515625
v -160.18829345703125 50.5 -591.65631103515625
v -189.16253662109375 40.5 -501.23233032226562
v -189.16253662109375 50.5 -501.23233032226562
v -160.18829345703125 40.5 -501.23233032226562
v -160.18829345703125 50.5 -501.23233032226562
v -189.16253662109375 50.5 -501.23233032226562
v -139.16253662109375 50.5 -453.66802978515625
v -89.162528991699219 50.5 -501.23233032226562
v -118.13676452636719 50.5 -501.23233032226562
v -118.13676452636719 50.5 -591.65631103515625
v -160.18829345703125 50.5 -591.65631103515625
v -160.18829345703125 50.5 -501.23233032226562
vn 0 -1 0
vn 0 -1 0
vn 0 -1 0
vn 0 -1 0
vn 0 -1 0
vn 0 -1 0
vn 0 -1 0
vn -0.68923896551132202 0 0.72453409433364868
vn -0.68923896551132202 0 0.72453409433364868
vn -0.68923896551132202 0 0.72453409433364868
vn -0.68923896551132202 0 0.72453409433364868
vn 0.68923896551132202 0 0.72453409433364868
vn 0.68923896551132202 0 0.72453409433364868
vn 0.68923896551132202 0 0.72453409433364868
vn 0.68923896551132202 0 0.72453409433364868
vn 0 0 -1
vn 0 0 -1
vn 0 0 -1
vn 0 0 -1
vn 1 0 0
vn 1 0 0
vn 1 0 0
vn 1 0 0
vn 0 0 -1
vn 0 0 -1
vn 0 0 -1
vn 0 0 -1
vn -1 0 0
vn -1 0 0
vn -1 0 0
vn -1 0 0
vn 0 0 -1
vn 0 0 -1
vn 0 0 -1
vn 0 0 -1
vn 0 1 0
vn 0 1 0
vn 0 1 0
vn 0 1 0
vn 0 1 0
vn 0 1 0
vn 0 1 0
f 5//5 4//4 7//7 6//6
f 4//4 2//2 7//7
f 1//1 7//7 2//2
f 2//2 4//4 3//3
f 9//9 11//11 10//10 8//8
f 13//13 15//15 14//14 12//12
f 17//17 19//19 18//18 16//16
f 21//21 23//23 22//22 20//20
f 25//25 27//27 26//26 24//24
f 29//29 31//31 30//30 28//28
f 33//33 35//35 34//34 32//32
f 40//40 41//41 42//42 39//39
f 39//39 42//42 37//37
f 36//36 37//37 42//42
f 37//37 38//38 39//39
usemtl Blue
v -358.28167724609375 40.5 -221.48133850097656
v -310.7174072265625 40.5 -271.4813232421875
v -358.28167724609375 40.5 -321.4813232421875
v -358.28167724609375 40.5 -292.50711059570312
v -448.7056884765625 40.5 -292.50711059570312
v -448.7056884765625 40.5 -250.45556640625
v -358.28167724609375 40.5 -250.45556640625
v -310.7174072265625 40.5 -271.4813232421875
v -310.7174072265625 50.5 -271.4813232421875
v -358.28167724609375 40.5 -221.48133850097656
v -358.28167724609375 50.5 -221.48133850097656
v -358.28167724609375 40.5 -321.4813232421875
v -358.28167724609375 50.5 -321.4813232421875
v -310.7174072265625 40.5 -271.4813232421875
v -310.7174072265625 50.5 -271.4813232421875
v -358.28167724609375 40.5 -292.50711059570312
v -358.28167724609375 50.5 -292.50711059570312
v -358.28167724609375 40.5 -321.4813232421875
v -358.28167724609375 50.5 -321.4813232421875
v -448.7056884765625 40.5 -292.50711059570312
v -448.7056884765625 50.5 -292.50711059570312
v -358.28167724609375 40.5 -292.50711059570312
v -358.28167724609375 50.5 -292.50711059570312
v -448.7056884765625 40.5 -250.45556640625
v -448.7056884765625 50.5 -250.45556640625
v -448.7056884765625 40.5 -292.50711059570312
v -448.7056884765625 50.5 -292.50711059570312
v -358.28167724609375 40.5 -250.45556640625
v -358.28167724609375 50.5 -250.45556640625
v -448.7056884765625 40.5 -250.45556640625
v -448.7056884765625 50.5 -250.45556640625
v -358.28167724609375 40.5 -221.48133850097656
v -358.28167724609375 50.5 -221.48133850097656
v -358.28167724609375 40.5 -250.45556640625
v -358.28167724609375 50.5 -250.45556640625
v -358.28167724609375 50.5 -221.48133850097656
v -310.7174072265625 50.5 -271.4813232421875
v -358.28167724609375 50.5 -321.4813232421875
v -358.28167724609375 50.5 -292.50711059570312
v -448.7056884765625 50.5 -292.50711059570312
v -448.7056884765625 50.5 -250.45556640625
v -358.28167724609375 50.5 -250.45556640625
vn 0 -1 0
vn 0 -1 0
vn 0 -1 0
vn 0 -1 0
vn 0 -1 0
vn 0 -1 0
vn 0 -1 0
vn 0.72453409433364868 0 0.68923896551132202
vn 0.72453409433364868 0 0.68923896551132202
vn 0.72453409433364868 0 0.68923896551132202
vn 0.72453409433364868 0 0.68923896551132202
vn 0.72453409433364868 0 -0.68923896551132202
vn 0.72453409433364868 0 -0.68923896551132202
vn 0.72453409433364868 0 -0.68923896551132202
vn 0.72453409433364868 0 -0.68923896551132202
vn -1 0 0
vn -1 0 0
vn -1 0 0
vn -1 0 0
vn 0 0 -1
vn 0 0 -1
vn 0 0 -1
vn 0 0 -1
vn -1 0 0
vn -1 0 0
vn -1 0 0
vn -1 0 0
vn 0 0 1
vn 0 0 1
vn 0 0 1
vn 0 0 1
vn -1 0 0
vn -1 0 0
vn -1 0 0
vn -1 0 0
vn 0 1 0
vn 0 1 0
vn 0 1 0
vn 0 1 0
vn 0 1 0
vn 0 1 0
vn 0 1 0
f 47//47 46//46 49//49 48//48
f 46//46 44//44 49//49
f 43//43 49//49 44//44
f 44//44 46//46 45//45
f 51//51 53//53 52//52 50//50
f 55//55 57//57 56//56 54//54
f 59//59 61//61 60//60 58//58
f 63//63 65//65 64//64 62//62
f 67//67 69//69 68//68 66//66
f 71//71 73//73 72//72 70//70
f 75//75 77//77 76//76 74//74
f 82//82 83//83 84//84 81//81
f 81//81 84//84 79//79
f 78//78 79//79 84//84
f 79//79 80//80 81//81
