# Rhino

mtllib accessi.mtl
g AR 2 ACCESSI
usemtl Blue
v -160.00065612792969 40.5 -913.1566162109375
v -207.56494140625 40.5 -863.1566162109375
v -160.00065612792969 40.5 -813.1566162109375
v -160.00065612792969 40.5 -842.130859375
v -69.57666015625 40.5 -842.130859375
v -69.57666015625 40.5 -884.182373046875
v -160.00065612792969 40.5 -884.182373046875
v -207.56494140625 40.5 -863.1566162109375
v -207.56494140625 50.5 -863.1566162109375
v -160.00065612792969 40.5 -913.1566162109375
v -160.00065612792969 50.5 -913.1566162109375
v -160.00065612792969 40.5 -813.1566162109375
v -160.00065612792969 50.5 -813.1566162109375
v -207.56494140625 40.5 -863.1566162109375
v -207.56494140625 50.5 -863.1566162109375
v -160.00065612792969 40.5 -842.130859375
v -160.00065612792969 50.5 -842.130859375
v -160.00065612792969 40.5 -813.1566162109375
v -160.00065612792969 50.5 -813.1566162109375
v -69.57666015625 40.5 -842.130859375
v -69.57666015625 50.5 -842.130859375
v -160.00065612792969 40.5 -842.130859375
v -160.00065612792969 50.5 -842.130859375
v -69.57666015625 40.5 -884.182373046875
v -69.57666015625 50.5 -884.182373046875
v -69.57666015625 40.5 -842.130859375
v -69.57666015625 50.5 -842.130859375
v -160.00065612792969 40.5 -884.182373046875
v -160.00065612792969 50.5 -884.182373046875
v -69.57666015625 40.5 -884.182373046875
v -69.57666015625 50.5 -884.182373046875
v -160.00065612792969 40.5 -913.1566162109375
v -160.00065612792969 50.5 -913.1566162109375
v -160.00065612792969 40.5 -884.182373046875
v -160.00065612792969 50.5 -884.182373046875
v -160.00065612792969 50.5 -913.1566162109375
v -207.56494140625 50.5 -863.1566162109375
v -160.00065612792969 50.5 -813.1566162109375
v -160.00065612792969 50.5 -842.130859375
v -69.57666015625 50.5 -842.130859375
v -69.57666015625 50.5 -884.182373046875
v -160.00065612792969 50.5 -884.182373046875
vn 0 -1 0
vn 0 -1 0
vn 0 -1 0
vn 0 -1 0
vn 0 -1 0
vn 0 -1 0
vn 0 -1 0
vn -0.72453409433364868 0 -0.68923896551132202
vn -0.72453409433364868 0 -0.68923896551132202
vn -0.72453409433364868 0 -0.68923896551132202
vn -0.72453409433364868 0 -0.68923896551132202
vn -0.72453409433364868 0 0.68923896551132202
vn -0.72453409433364868 0 0.68923896551132202
vn -0.72453409433364868 0 0.68923896551132202
vn -0.72453409433364868 0 0.68923896551132202
vn 1 0 0
vn 1 0 0
vn 1 0 0
vn 1 0 0
vn 0 0 1
vn 0 0 1
vn 0 0 1
vn 0 0 1
vn 1 0 0
vn 1 0 0
vn 1 0 0
vn 1 0 0
vn 0 0 -1
vn 0 0 -1
vn 0 0 -1
vn 0 0 -1
vn 1 0 0
vn 1 0 0
vn 1 0 0
vn 1 0 0
vn 0 1 0
vn 0 1 0
vn 0 1 0
vn 0 1 0
vn 0 1 0
vn 0 1 0
vn 0 1 0
f 5//5 4//4 7//7 6//6
f 4//4 2//2 7//7
f 1//1 7//7 2//2
f 2//2 4//4 3//3
f 9//9 11//11 10//10 8//8
f 13//13 15//15 14//14 12//12
f 17//17 19//19 18//18 16//16
f 21//21 23//23 22//22 20//20
f 25//25 27//27 26//26 24//24
f 29//29 31//31 30//30 28//28
f 33//33 35//35 34//34 32//32
f 40//40 41//41 42//42 39//39
f 39//39 42//42 37//37
f 36//36 37//37 42//42
f 37//37 38//38 39//39
usemtl Blue
v -346.23907470703125 40.5 -813.15667724609375
v -298.67477416992188 40.5 -863.15667724609375
v -346.23907470703125 40.5 -913.15667724609375
v -346.23907470703125 40.5 -884.18243408203125
v -436.66305541992188 40.5 -884.18243408203125
v -436.66305541992188 40.5 -842.130859375
v -346.23907470703125 40.5 -842.130859375
v -298.67477416992188 40.5 -863.15667724609375
v -298.67477416992188 50.5 -863.15667724609375
v -346.23907470703125 40.5 -813.15667724609375
v -346.23907470703125 50.5 -813.15667724609375
v -346.23907470703125 40.5 -913.15667724609375
v -346.23907470703125 50.5 -913.15667724609375
v -298.67477416992188 40.5 -863.15667724609375
v -298.67477416992188 50.5 -863.15667724609375
v -346.23907470703125 40.5 -884.18243408203125
v -346.23907470703125 50.5 -884.18243408203125
v -346.23907470703125 40.5 -913.15667724609375
v -346.23907470703125 50.5 -913.15667724609375
v -436.66305541992188 40.5 -884.18243408203125
v -436.66305541992188 50.5 -884.18243408203125
v -346.23907470703125 40.5 -884.18243408203125
v -346.23907470703125 50.5 -884.18243408203125
v -436.66305541992188 40.5 -842.130859375
v -436.66305541992188 50.5 -842.130859375
v -436.66305541992188 40.5 -884.18243408203125
v -436.66305541992188 50.5 -884.18243408203125
v -346.23907470703125 40.5 -842.130859375
v -346.23907470703125 50.5 -842.130859375
v -436.66305541992188 40.5 -842.130859375
v -436.66305541992188 50.5 -842.130859375
v -346.23907470703125 40.5 -813.15667724609375
v -346.23907470703125 50.5 -813.15667724609375
v -346.23907470703125 40.5 -842.130859375
v -346.23907470703125 50.5 -842.130859375
v -346.23907470703125 50.5 -813.15667724609375
v -298.67477416992188 50.5 -863.15667724609375
v -346.23907470703125 50.5 -913.15667724609375
v -346.23907470703125 50.5 -884.18243408203125
v -436.66305541992188 50.5 -884.18243408203125
v -436.66305541992188 50.5 -842.130859375
v -346.23907470703125 50.5 -842.130859375
vn 0 -1 0
vn 0 -1 0
vn 0 -1 0
vn 0 -1 0
vn 0 -1 0
vn 0 -1 0
vn 0 -1 0
vn 0.72453409433364868 0 0.68923896551132202
vn 0.72453409433364868 0 0.68923896551132202
vn 0.72453409433364868 0 0.68923896551132202
vn 0.72453409433364868 0 0.68923896551132202
vn 0.72453409433364868 0 -0.68923896551132202
vn 0.72453409433364868 0 -0.68923896551132202
vn 0.72453409433364868 0 -0.68923896551132202
vn 0.72453409433364868 0 -0.68923896551132202
vn -1 0 0
vn -1 0 0
vn -1 0 0
vn -1 0 0
vn 0 0 -1
vn 0 0 -1
vn 0 0 -1
vn 0 0 -1
vn -1 0 0
vn -1 0 0
vn -1 0 0
vn -1 0 0
vn 0 0 1
vn 0 0 1
vn 0 0 1
vn 0 0 1
vn -1 0 0
vn -1 0 0
vn -1 0 0
vn -1 0 0
vn 0 1 0
vn 0 1 0
vn 0 1 0
vn 0 1 0
vn 0 1 0
vn 0 1 0
vn 0 1 0
f 47//47 46//46 49//49 48//48
f 46//46 44//44 49//49
f 43//43 49//49 44//44
f 44//44 46//46 45//45
f 51//51 53//53 52//52 50//50
f 55//55 57//57 56//56 54//54
f 59//59 61//61 60//60 58//58
f 63//63 65//65 64//64 62//62
f 67//67 69//69 68//68 66//66
f 71//71 73//73 72//72 70//70
f 75//75 77//77 76//76 74//74
f 82//82 83//83 84//84 81//81
f 81//81 84//84 79//79
f 78//78 79//79 84//84
f 79//79 80//80 81//81
usemtl Blue
v -211.81500244140625 40.5 -505.02459716796875
v -261.81500244140625 40.5 -552.5888671875
v -311.81500244140625 40.5 -505.02459716796875
v -282.84075927734375 40.5 -505.02459716796875
v -282.84075927734375 40.5 -414.6005859375
v -240.78924560546875 40.5 -414.6005859375
v -240.78924560546875 40.5 -505.02459716796875
v -261.81500244140625 40.5 -552.5888671875
v -261.81500244140625 50.5 -552.5888671875
v -211.81500244140625 40.5 -505.02459716796875
v -211.81500244140625 50.5 -505.02459716796875
v -311.81500244140625 40.5 -505.02459716796875
v -311.81500244140625 50.5 -505.02459716796875
v -261.81500244140625 40.5 -552.5888671875
v -261.81500244140625 50.5 -552.5888671875
v -282.84075927734375 40.5 -505.02459716796875
v -282.84075927734375 50.5 -505.02459716796875
v -311.81500244140625 40.5 -505.02459716796875
v -311.81500244140625 50.5 -505.02459716796875
v -282.84075927734375 40.5 -414.6005859375
v -282.84075927734375 50.5 -414.6005859375
v -282.84075927734375 40.5 -505.02459716796875
v -282.84075927734375 50.5 -505.02459716796875
v -240.78924560546875 40.5 -414.6005859375
v -240.78924560546875 50.5 -414.6005859375
v -282.84075927734375 40.5 -414.6005859375
v -282.84075927734375 50.5 -414.6005859375
v -240.78924560546875 40.5 -505.02459716796875
v -240.78924560546875 50.5 -505.02459716796875
v -240.78924560546875 40.5 -414.6005859375
v -240.78924560546875 50.5 -414.6005859375
v -211.81500244140625 40.5 -505.02459716796875
v -211.81500244140625 50.5 -505.02459716796875
v -240.78924560546875 40.5 -505.02459716796875
v -240.78924560546875 50.5 -505.02459716796875
v -211.81500244140625 50.5 -505.02459716796875
v -261.81500244140625 50.5 -552.5888671875
v -311.81500244140625 50.5 -505.02459716796875
v -282.84075927734375 50.5 -505.02459716796875
v -282.84075927734375 50.5 -414.6005859375
v -240.78924560546875 50.5 -414.6005859375
v -240.78924560546875 50.5 -505.02459716796875
vn 0 -1 0
vn 0 -1 0
vn 0 -1 0
vn 0 -1 0
vn 0 -1 0
vn 0 -1 0
vn 0 -1 0
vn 0.68923896551132202 0 -0.72453409433364868
vn 0.68923896551132202 0 -0.72453409433364868
vn 0.68923896551132202 0 -0.72453409433364868
vn 0.68923896551132202 0 -0.72453409433364868
vn -0.68923896551132202 0 -0.72453409433364868
vn -0.68923896551132202 0 -0.72453409433364868
vn -0.68923896551132202 0 -0.72453409433364868
vn -0.68923896551132202 0 -0.72453409433364868
vn 0 0 1
vn 0 0 1
vn 0 0 1
vn 0 0 1
vn -1 0 0
vn -1 0 0
vn -1 0 0
vn -1 0 0
vn 0 0 1
vn 0 0 1
vn 0 0 1
vn 0 0 1
vn 1 0 0
vn 1 0 0
vn 1 0 0
vn 1 0 0
vn 0 0 1
vn 0 0 1
vn 0 0 1
vn 0 0 1
vn 0 1 0
vn 0 1 0
vn 0 1 0
vn 0 1 0
vn 0 1 0
vn 0 1 0
vn 0 1 0
f 89//89 88//88 91//91 90//90
f 88//88 86//86 91//91
f 85//85 91//91 86//86
f 86//86 88//88 87//87
f 93//93 95//95 94//94 92//92
f 97//97 99//99 98//98 96//96
f 101//101 103//103 102//102 100//100
f 105//105 107//107 106//106 104//104
f 109//109 111//111 110//110 108//108
f 113//113 115//115 114//114 112//112
f 117//117 119//119 118//118 116//116
f 124//124 125//125 126//126 123//123
f 123//123 126//126 121//121
f 120//120 121//121 126//126
f 121//121 122//122 123//123
